<?xml version="1.0" encoding="UTF-8" standalone="no"?>
<svg
   width="370"
   height="70"
   viewBox="0 0 370 70"
   version="1.1"
   id="svg6"
   sodipodi:docname="leetnode-transparent-color.svg"
   inkscape:version="1.2.1 (9c6d41e4, 2022-07-14)"
   xmlns:inkscape="http://www.inkscape.org/namespaces/inkscape"
   xmlns:sodipodi="http://sodipodi.sourceforge.net/DTD/sodipodi-0.dtd"
   xmlns="http://www.w3.org/2000/svg"
   xmlns:svg="http://www.w3.org/2000/svg">
  <defs
     id="defs10" />
  <sodipodi:namedview
     id="namedview8"
     pagecolor="#ffffff"
     bordercolor="#000000"
     borderopacity="0.25"
     inkscape:showpageshadow="2"
     inkscape:pageopacity="0.0"
     inkscape:pagecheckerboard="0"
     inkscape:deskcolor="#d1d1d1"
     showgrid="false"
     inkscape:zoom="3.2675676"
     inkscape:cx="186.07113"
     inkscape:cy="35.806452"
     inkscape:window-width="1935"
     inkscape:window-height="670"
     inkscape:window-x="0"
     inkscape:window-y="25"
     inkscape:window-maximized="0"
     inkscape:current-layer="svg6" />
  <path
     fill-rule="evenodd"
     d="M33.94 10.606V1.061c0-1.414 2.12-1.414 2.12 0v9.545h10.606V1.061c0-1.414 2.122-1.414 2.122 0v9.545h9.545a1.06 1.06 0 0 1 1.06 1.06v9.546h9.546a1.06 1.06 0 1 1 0 2.121h-9.545V33.94h9.545a1.06 1.06 0 1 1 0 2.121h-9.545v10.606h9.545a1.06 1.06 0 1 1 0 2.122h-9.545v9.545a1.06 1.06 0 0 1-1.061 1.06h-9.545v9.546c0 1.414-2.122 1.414-2.122 0v-9.545H36.06v9.545c0 1.414-2.12 1.414-2.12 0v-9.545H23.332v9.545c0 1.414-2.121 1.414-2.121 0v-9.545h-9.545a1.06 1.06 0 0 1-1.061-1.061v-9.545H1.061a1.06 1.06 0 1 1 0-2.122h9.545V36.06H1.061a1.06 1.06 0 1 1 0-2.12h9.545V23.332H1.061a1.06 1.06 0 1 1 0-2.121h9.545v-9.545a1.06 1.06 0 0 1 1.06-1.061h9.546V1.061c0-1.414 2.121-1.414 2.121 0v9.545H33.94Zm-21.213 2.121v44.545h44.545V12.727H12.727Zm27.682 33.94H29.59a5.305 5.305 0 0 1-10.5-1.061 5.305 5.305 0 0 1 4.242-5.197V29.59a5.305 5.305 0 0 1 1.06-10.5 5.303 5.303 0 0 1 1.061 10.5v10.818a5.31 5.31 0 0 1 4.137 4.136h10.818a5.305 5.305 0 0 1 10.5 1.06 5.303 5.303 0 0 1-10.5 1.061ZM24.394 27.575a3.182 3.182 0 1 0 0-6.364 3.182 3.182 0 0 0 0 6.364Zm0 21.212a3.182 3.182 0 1 0 0-6.364 3.182 3.182 0 0 0 0 6.364Zm21.212 0a3.182 3.182 0 1 0 0-6.364 3.182 3.182 0 0 0 0 6.364Z"
     fill="#fff"
     id="path2"
     style="fill:#41c3d7;fill-opacity:1" />
  <path
     d="M90.78 54.687a.796.796 0 0 1-.78-.781V17.922c0-.42.36-.78.78-.78h7.81c.42 0 .781.36.781.78v28.114h13.516c.42 0 .781.36.781.781v7.089c0 .42-.36.78-.78.78H90.78zm28.896 0V18.703c0-1.502.3-1.802.78-1.802h26.312c.42 0 .781.3.781.72v6.79c0 .42-.36.78-.78.78h-17.782v6.248h11.234c.42 0 .78.36.78.78v6.729c0 .42-.36.78-.78.78h-11.234v6.428h17.721c.42 0 .781.36.781.781v6.729c0 .42-.36.78-.78.78h-26.252c-.481 0-.781-.36-.781.24zm33.88 0V18.703c0-1.502.301-1.802.782-1.802h26.311c.421 0 .781.3.781.72v6.79c0 .42-.36.78-.78.78h-17.782v6.248h11.234c.42 0 .78.36.78.78v6.729c0 .42-.36.78-.78.78h-11.234v6.428h17.721c.42 0 .781.36.781.781v6.729c0 .42-.36.78-.78.78h-26.252c-.481 0-.781-.36-.781.24zm43.614 0c-.421 0-.721-.36-.721-.781V25.55h-8.23c-.42 0-.781-.3-.781-.72v-6.909c0-.42.36-.78.78-.78h25.772c.48 0 .78.36.78.78v6.909c0 .42-.3.72-.78.72h-8.23v28.355c0 .42-.36.78-.781.78h-7.81zm24.39 0a.796.796 0 0 1-.782-.781V17.922c0-.42.36-.78.781-.78h7.089c.24 0 .48.12.66.3l13.817 21.326V17.922c0-.42.36-.78.781-.78h7.39c.42 0 .78.36.78.78v35.984c0 .42-.36.78-.78.78h-7.09c-.24 0-.48-.12-.66-.3l-13.757-21.205v20.725c0 .42-.36.78-.78.78h-7.45zm55.867 0c-3.605 0-6.909-.841-9.792-2.523-2.944-1.682-5.286-4.085-7.029-6.969-1.682-2.943-2.523-6.307-2.523-9.912 0-3.544.841-6.848 2.523-9.792 1.743-2.943 4.025-5.286 6.969-6.968S273.822 16 277.427 16c3.544 0 6.848.84 9.792 2.523s5.286 4.025 6.968 6.968c1.742 2.944 2.583 6.248 2.583 9.792 0 3.605-.84 6.909-2.583 9.852-1.682 2.944-4.025 5.287-6.968 7.029-2.944 1.682-6.248 2.523-9.792 2.523zm.12-8.65a8.96 8.96 0 0 0 4.806-1.382c1.502-.962 2.703-2.223 3.544-3.905.901-1.622 1.322-3.484 1.322-5.467 0-1.922-.42-3.784-1.322-5.406a9.936 9.936 0 0 0-3.544-3.845 8.96 8.96 0 0 0-4.806-1.382c-1.802 0-3.424.481-4.926 1.382a10.24 10.24 0 0 0-3.664 3.845c-.902 1.682-1.322 3.484-1.322 5.406 0 1.983.42 3.845 1.322 5.467.96 1.622 2.162 2.943 3.664 3.845a8.91 8.91 0 0 0 4.926 1.441zm26.011 8.65c-.48 0-.78-.36-.78-.781V17.922c0-.42.3-.78.78-.78h13.637c3.604 0 6.908.78 9.792 2.402 2.883 1.562 5.106 3.785 6.728 6.668 1.562 2.824 2.403 6.068 2.403 9.672 0 3.664-.841 6.908-2.463 9.732-1.622 2.883-3.905 5.106-6.848 6.668-2.884 1.622-6.248 2.403-9.912 2.403h-13.337zm8.53-8.41h5.287c1.742 0 3.364-.42 4.746-1.262 1.382-.901 2.523-2.102 3.304-3.664s1.201-3.364 1.201-5.407c0-1.982-.42-3.845-1.261-5.406a9.344 9.344 0 0 0-3.424-3.725 9.74 9.74 0 0 0-4.926-1.322h-4.926v20.786zm30.037 8.41V18.703c0-1.502.3-1.802.781-1.802h26.312c.42 0 .781.3.781.72v6.79c0 .42-.36.78-.781.78h-17.782v6.248h11.234c.42 0 .781.36.781.78v6.729c0 .42-.36.78-.78.78h-11.235v6.428h17.722c.42 0 .78.36.78.781v6.729c0 .42-.36.78-.78.78h-26.252c-.48 0-.78-.36-.78.24z"
     fill="#fff"
     id="path4"
     style="fill:#41c3d7;fill-opacity:1" />
</svg>
