<?xml version="1.0" encoding="UTF-8" standalone="no"?>
<svg
   width="400"
   height="100"
   viewBox="0 0 400 100"
   version="1.1"
   id="svg232"
   sodipodi:docname="leetnode-transparent2.svg"
   inkscape:export-filename="leetnode-banner.png"
   inkscape:export-xdpi="96"
   inkscape:export-ydpi="96"
   inkscape:version="1.2.1 (9c6d41e4, 2022-07-14)"
   xmlns:inkscape="http://www.inkscape.org/namespaces/inkscape"
   xmlns:sodipodi="http://sodipodi.sourceforge.net/DTD/sodipodi-0.dtd"
   xmlns="http://www.w3.org/2000/svg"
   xmlns:svg="http://www.w3.org/2000/svg">
  <defs
     id="defs236" />
  <sodipodi:namedview
     id="namedview234"
     pagecolor="#41c3d7"
     bordercolor="#000000"
     borderopacity="0.25"
     inkscape:showpageshadow="2"
     inkscape:pageopacity="1"
     inkscape:pagecheckerboard="0"
     inkscape:deskcolor="#d1d1d1"
     showgrid="false"
     inkscape:zoom="3.2675676"
     inkscape:cx="120.73201"
     inkscape:cy="35.041356"
     inkscape:window-width="2560"
     inkscape:window-height="1027"
     inkscape:window-x="0"
     inkscape:window-y="25"
     inkscape:window-maximized="1"
     inkscape:current-layer="svg232" />
  <path
     fill-rule="evenodd"
     d="m 48.940092,25.6055 v -9.545 c 0,-1.414 2.120005,-1.414 2.120005,0 v 9.545 h 10.606029 v -9.545 c 0,-1.414 2.122006,-1.414 2.122006,0 v 9.545 h 9.545026 a 1.0600029,1.06 0 0 1 1.060003,1.06 v 9.546 h 9.546025 a 1.0605029,1.0605 0 1 1 0,2.121 h -9.545025 v 10.607 h 9.545025 a 1.0605029,1.0605 0 1 1 0,2.121 h -9.545025 v 10.606 h 9.545025 a 1.0610029,1.061 0 1 1 0,2.122 h -9.545025 v 9.545 a 1.0600029,1.06 0 0 1 -1.061003,1.06 h -9.545026 v 9.546 c 0,1.414 -2.122006,1.414 -2.122006,0 v -9.545 H 51.060097 v 9.545 c 0,1.414 -2.120005,1.414 -2.120005,0 v -9.545 H 38.332063 v 9.545 c 0,1.414 -2.121006,1.414 -2.121006,0 v -9.545 h -9.545025 a 1.0600029,1.06 0 0 1 -1.061003,-1.061 v -9.545 h -9.544026 a 1.0610029,1.061 0 1 1 0,-2.122 h 9.545026 v -10.607 h -9.545026 a 1.0600029,1.06 0 1 1 0,-2.12 h 9.545026 v -10.608 h -9.545026 a 1.0605029,1.0605 0 1 1 0,-2.121 h 9.545026 v -9.545 a 1.0600029,1.06 0 0 1 1.060003,-1.061 h 9.546025 v -9.544 c 0,-1.414 2.121006,-1.414 2.121006,0 v 9.545 z m -21.213058,2.121 v 44.545 h 44.545121 v -44.545 z m 27.682075,33.94 H 44.59008 a 5.3050143,5.305 0 0 1 -10.500028,-1.061 5.3050143,5.305 0 0 1 4.242011,-5.197 v -10.819 a 5.3050143,5.305 0 0 1 1.060003,-10.5 5.3030143,5.303 0 0 1 1.061003,10.5 v 10.818 a 5.3100144,5.31 0 0 1 4.137011,4.136 h 10.818029 a 5.3050143,5.305 0 0 1 10.500029,1.06 5.3030143,5.303 0 0 1 -10.500029,1.061 z M 39.394066,42.5745 a 3.1820086,3.182 0 1 0 0,-6.364 3.1820086,3.182 0 0 0 0,6.364 z m 0,21.212 a 3.1820086,3.182 0 1 0 0,-6.364 3.1820086,3.182 0 0 0 0,6.364 z m 21.212057,0 a 3.1820086,3.182 0 1 0 0,-6.364 3.1820086,3.182 0 0 0 0,6.364 z"
     fill="#ffffff"
     id="path228"
     style="stroke-width:1" />
  <path
     d="m 105.78025,69.6865 a 0.79600215,0.796 0 0 1 -0.78001,-0.781 v -35.984 c 0,-0.42 0.36,-0.78 0.78001,-0.78 h 7.81002 c 0.42,0 0.781,0.36 0.781,0.78 v 28.114 h 13.51604 c 0.42,0 0.781,0.36 0.781,0.781 v 7.089 c 0,0.42 -0.36,0.78 -0.78,0.78 h -22.10806 z m 28.89607,0 v -35.984 c 0,-1.502 0.3,-1.802 0.78001,-1.802 h 26.31207 c 0.42,0 0.781,0.3 0.781,0.72 v 6.79 c 0,0.42 -0.36,0.78 -0.78,0.78 h -17.78205 v 6.248 h 11.23403 c 0.42,0 0.78,0.36 0.78,0.78 v 6.729 c 0,0.42 -0.36,0.78 -0.78,0.78 h -11.23403 v 6.428 h 17.72105 c 0.42,0 0.781,0.36 0.781,0.781 v 6.729 c 0,0.42 -0.36,0.78 -0.78,0.78 h -26.25207 c -0.48101,0 -0.78101,-0.36 -0.78101,0.24 z m 33.8801,0 v -35.984 c 0,-1.502 0.301,-1.802 0.782,-1.802 h 26.31107 c 0.421,0 0.781,0.3 0.781,0.72 v 6.79 c 0,0.42 -0.36,0.78 -0.78,0.78 h -17.78205 v 6.248 h 11.23403 c 0.42,0 0.78,0.36 0.78,0.78 v 6.729 c 0,0.42 -0.36,0.78 -0.78,0.78 h -11.23403 v 6.428 h 17.72105 c 0.42,0 0.781,0.36 0.781,0.781 v 6.729 c 0,0.42 -0.36,0.78 -0.78,0.78 h -26.25207 c -0.481,0 -0.781,-0.36 -0.781,0.24 z m 43.61411,0 c -0.421,0 -0.721,-0.36 -0.721,-0.781 v -28.356 h -8.23002 c -0.42,0 -0.781,-0.3 -0.781,-0.72 v -6.909 c 0,-0.42 0.36,-0.78 0.78,-0.78 h 25.77207 c 0.48,0 0.78,0.36 0.78,0.78 v 6.909 c 0,0.42 -0.3,0.72 -0.78,0.72 h -8.23002 v 28.355 c 0,0.42 -0.36,0.78 -0.78101,0.78 h -7.81002 z m 24.39007,0 a 0.79600215,0.796 0 0 1 -0.782,-0.781 v -35.984 c 0,-0.42 0.36,-0.78 0.781,-0.78 h 7.08902 c 0.24,0 0.48,0.12 0.66,0.3 l 13.81704,21.326 v -20.846 c 0,-0.42 0.36,-0.78 0.781,-0.78 h 7.39002 c 0.42,0 0.78,0.36 0.78,0.78 v 35.984 c 0,0.42 -0.36,0.78 -0.78,0.78 h -7.09002 c -0.24,0 -0.48,-0.12 -0.66,-0.3 l -13.75704,-21.205 v 20.725 c 0,0.42 -0.36,0.78 -0.78,0.78 h -7.45002 z m 55.86715,0 c -3.60501,0 -6.90902,-0.841 -9.79203,-2.523 -2.944,-1.682 -5.28601,-4.085 -7.02902,-6.969 -1.682,-2.943 -2.523,-6.307 -2.523,-9.912 0,-3.544 0.841,-6.848 2.523,-9.792 1.74301,-2.943 4.02502,-5.286 6.96902,-6.968 2.94401,-1.682 6.24702,-2.523 9.85203,-2.523 3.54401,0 6.84802,0.84 9.79203,2.523 2.944,1.683 5.28601,4.025 6.96802,6.968 1.742,2.944 2.583,6.248 2.583,9.792 0,3.605 -0.84,6.909 -2.583,9.852 -1.68201,2.944 -4.02502,5.287 -6.96802,7.029 -2.94401,1.682 -6.24802,2.523 -9.79203,2.523 z m 0.12,-8.65 a 8.9600242,8.96 0 0 0 4.80601,-1.382 c 1.50201,-0.962 2.70301,-2.223 3.54401,-3.905 0.90101,-1.622 1.32201,-3.484 1.32201,-5.467 0,-1.922 -0.42,-3.784 -1.32201,-5.406 a 9.9360269,9.936 0 0 0 -3.54401,-3.845 8.9600242,8.96 0 0 0 -4.80601,-1.382 c -1.802,0 -3.42401,0.481 -4.92601,1.382 a 10.240028,10.24 0 0 0 -3.66401,3.845 c -0.90201,1.682 -1.32201,3.484 -1.32201,5.406 0,1.983 0.42,3.845 1.32201,5.467 0.96,1.622 2.162,2.943 3.66401,3.845 a 8.9100241,8.91 0 0 0 4.92601,1.441 z m 26.01107,8.65 c -0.48,0 -0.78,-0.36 -0.78,-0.781 v -35.984 c 0,-0.42 0.3,-0.78 0.78,-0.78 h 13.63704 c 3.60401,0 6.90802,0.78 9.79202,2.402 2.88301,1.562 5.10602,3.785 6.72802,6.668 1.56201,2.824 2.40301,6.068 2.40301,9.672 0,3.664 -0.841,6.908 -2.46301,9.732 -1.622,2.883 -3.90501,5.106 -6.84802,6.668 -2.884,1.622 -6.24801,2.403 -9.91202,2.403 z m 8.53002,-8.41 h 5.28702 c 1.742,0 3.36401,-0.42 4.74601,-1.262 1.382,-0.901 2.52301,-2.102 3.30401,-3.664 0.781,-1.562 1.201,-3.364 1.201,-5.407 0,-1.982 -0.42,-3.845 -1.261,-5.406 a 9.3440253,9.344 0 0 0 -3.42401,-3.725 9.7400263,9.74 0 0 0 -4.92601,-1.322 h -4.92602 v 20.786 z m 30.03708,8.41 v -35.984 c 0,-1.502 0.30001,-1.802 0.78101,-1.802 H 384.219 c 0.42,0 0.781,0.3 0.781,0.72 v 6.79 c 0,0.42 -0.36,0.78 -0.781,0.78 h -17.78205 v 6.248 h 11.23403 c 0.42,0 0.781,0.36 0.781,0.78 v 6.729 c 0,0.42 -0.36,0.78 -0.78,0.78 h -11.23503 v 6.428 H 384.159 c 0.42,0 0.78,0.36 0.78,0.781 v 6.729 c 0,0.42 -0.36,0.78 -0.78,0.78 h -26.25207 c -0.48,0 -0.78001,-0.36 -0.78001,0.24 z"
     fill="#ffffff"
     id="path230"
     style="stroke-width:1" />
</svg>
